<svg id="Layer_1" data-name="Layer 1" xmlns="http://www.w3.org/2000/svg" viewBox="0 0 390.57 378.95"><defs><style>.cls-1{fill:none;stroke:#565655;stroke-miterlimit:10;stroke-width:7px;}</style></defs><polygon class="cls-1" points="315.38 12.71 281.24 12.71 270.51 12.71 178.67 12.71 167.94 12.71 152.94 12.71 76.1 12.71 24.54 142.01 24.63 371 163.99 22.6 174.71 22.6 35.36 371 127.2 371 266.56 22.6 277.28 22.6 137.93 371 229.78 371 373.09 12.71 315.38 12.71"/><path class="cls-1" d="M368.17,304.76c0-18.76-20-26.09-47.22-26.09-17.77,0-30.28,1.85-45.7,8.44l-8.76,22.38C284.38,301,300,297.56,318,297.56c19.64,0,27.22,4.09,27.22,8.94,0,15.65-82.26,3-100.9,58.9l-1.87,5.6H365.29V352.36H281.44C292.87,330.86,368.17,342,368.17,304.76Z"/></svg>